<svg width="512" height="512" viewBox="0 0 512 512" fill="none" xmlns="http://www.w3.org/2000/svg">
<rect width="512" height="512" rx="99" fill="white"/>
<path d="M219.619 128.667C231.68 128.667 243.244 133.461 251.772 141.99C260.301 150.518 265.095 162.082 265.095 174.143V337.857C265.095 345.094 267.972 352.032 273.089 357.149C278.206 362.266 285.144 365.143 292.381 365.143C299.618 365.143 306.556 362.266 311.673 357.149C316.79 352.032 319.667 345.094 319.667 337.857V137.762C319.667 134.084 321.882 130.768 325.28 129.36C328.679 127.952 332.591 128.73 335.193 131.331L380.669 176.808C384.221 180.359 384.221 186.117 380.669 189.669C377.117 193.221 371.36 193.221 367.808 189.669L337.857 159.718V337.857C337.857 349.918 333.063 361.482 324.534 370.01C316.006 378.539 304.442 383.333 292.381 383.333C280.32 383.333 268.756 378.539 260.228 370.01C251.7 361.482 246.905 349.918 246.905 337.857V174.143C246.905 166.906 244.028 159.968 238.911 154.851C233.794 149.734 226.856 146.857 219.619 146.857C212.383 146.857 205.444 149.734 200.327 154.851C195.21 159.968 192.333 166.906 192.333 174.143V374.238C192.333 377.916 190.118 381.233 186.72 382.641C183.321 384.048 179.409 383.27 176.808 380.669L131.331 335.193C127.78 331.641 127.78 325.883 131.331 322.331C134.883 318.779 140.641 318.779 144.193 322.331L174.143 352.282V174.143C174.143 162.082 178.938 150.518 187.466 141.99C195.995 133.461 207.558 128.667 219.619 128.667Z" fill="black"/>
</svg>
