<svg width="48" height="48" viewBox="0 0 48 48" xmlns="http://www.w3.org/2000/svg">
<path d="M9.23053 10C8.55114 10 7.99976 10.5514 7.99976 11.2308V21.0769C7.99976 21.7563 8.55114 22.3077 9.23053 22.3077H23.9998C24.6791 22.3077 25.2305 21.7563 25.2305 21.0769V11.2308C25.2305 10.5514 24.6791 10 23.9998 10H9.23053ZM27.6921 10V12.4615H30.1536V27.2308H10.4613V24.7692H7.99976V28.4615C7.99979 28.7879 8.12947 29.101 8.36028 29.3318C8.59108 29.5626 8.90411 29.6923 9.23053 29.6923H31.3844C31.7108 29.6923 32.0238 29.5626 32.2546 29.3318C32.4854 29.101 32.6151 28.7879 32.6151 28.4615V11.2308C32.6151 10.9044 32.4854 10.5913 32.2546 10.3605C32.0238 10.1297 31.7108 10 31.3844 10H27.6921ZM35.0767 10V12.4615H37.5382V34.6154H10.4613V32.1538H7.99976V35.8462C7.99979 36.1726 8.12947 36.4856 8.36028 36.7164C8.59108 36.9472 8.90411 37.0769 9.23053 37.0769H38.769C39.0954 37.0769 39.4084 36.9472 39.6392 36.7164C39.87 36.4856 39.9997 36.1726 39.9998 35.8462V11.2308C39.9997 10.9044 39.87 10.5913 39.6392 10.3605C39.4084 10.1297 39.0954 10 38.769 10H35.0767Z"/>
</svg>
