<svg width="128" height="128" viewBox="0 0 128 128" fill="none" xmlns="http://www.w3.org/2000/svg">
<path d="M51.8096 21.3333C55.851 21.3333 59.7257 22.9399 62.5834 25.7976C65.4411 28.6553 67.0477 32.53 67.0477 36.5714V91.4286C67.0477 93.8534 68.0116 96.1783 69.7262 97.8929C71.4409 99.6075 73.7657 100.571 76.1905 100.571C78.6154 100.571 80.9402 99.6075 82.6548 97.8929C84.3694 96.1783 85.3334 93.8534 85.3334 91.4286V24.381C85.3334 23.1485 86.0757 22.0373 87.2143 21.5655C88.3532 21.0938 89.6642 21.3546 90.5358 22.2262L105.774 37.4643C106.964 38.6545 106.964 40.5837 105.774 41.7738C104.584 42.964 102.655 42.964 101.464 41.7738L91.4286 31.7381V91.4286C91.4286 95.47 89.822 99.3447 86.9643 102.202C84.1066 105.06 80.2319 106.667 76.1905 106.667C72.1491 106.667 68.2744 105.06 65.4167 102.202C62.559 99.3447 60.9524 95.47 60.9524 91.4286V36.5714C60.9524 34.1466 59.9885 31.8218 58.2739 30.1072C56.5592 28.3925 54.2344 27.4286 51.8096 27.4286C49.3847 27.4286 47.0599 28.3925 45.3453 30.1072C43.6307 31.8218 42.6667 34.1466 42.6667 36.5714V103.619C42.6667 104.852 41.9244 105.963 40.7858 106.435C39.647 106.906 38.336 106.645 37.4643 105.774L22.2262 90.5357C21.0361 89.3456 21.0361 87.4164 22.2262 86.2262C23.4164 85.036 25.3456 85.036 26.5358 86.2262L36.5715 96.2619V36.5714C36.5715 32.53 38.1781 28.6553 41.0358 25.7976C43.8935 22.9399 47.7682 21.3333 51.8096 21.3333Z" fill="black"/>
</svg>
